REM DIRINDEX 1\2,1\3,1\4,1\5
REM DIRNAME "folder01","folder02","folder03","folder04","folder05"
TITLE ""
FILE "1Q_t_0610-0619.mp3" MP3
  TRACK 01 AUDIO
    TITLE "3:cjc172_2767"
    INDEX 01 00:00:00
  TRACK 02 AUDIO
    TITLE "0:"
    INDEX 01 00:01:29
  TRACK 03 AUDIO
    TITLE "4:cjc172_2768"
    INDEX 01 00:01:37
  TRACK 04 AUDIO
    TITLE "0:"
    INDEX 01 00:03:01
  TRACK 05 AUDIO
    TITLE "5:cjc172_2769"
    INDEX 01 00:03:11
  TRACK 06 AUDIO
    TITLE "0:"
    INDEX 01 00:07:67
  TRACK 07 AUDIO
    TITLE "3:cjc172_2770"
    INDEX 01 00:08:35
  TRACK 08 AUDIO
    TITLE "0:"
    INDEX 01 00:09:60
  TRACK 09 AUDIO
    TITLE "4:cjc172_2771"
    INDEX 01 00:09:68
  TRACK 10 AUDIO
    TITLE "0:"
    INDEX 01 00:13:38
  TRACK 11 AUDIO
    TITLE "5:cjc172_2772"
    INDEX 01 00:13:44
  TRACK 12 AUDIO
    TITLE "0:"
    INDEX 01 00:17:52
  TRACK 13 AUDIO
    TITLE "3:cjc172_2773"
    INDEX 01 00:18:24
  TRACK 14 AUDIO
    TITLE "0:"
    INDEX 01 00:19:41
  TRACK 15 AUDIO
    TITLE "4:cjc172_2774"
    INDEX 01 00:19:51
  TRACK 16 AUDIO
    TITLE "0:"
    INDEX 01 00:23:29
  TRACK 17 AUDIO
    TITLE "5:cjc172_2775"
    INDEX 01 00:23:41
  TRACK 18 AUDIO
    TITLE "0:"
    INDEX 01 00:27:62
  TRACK 19 AUDIO
    TITLE "3:cjc172_2776"
    INDEX 01 00:28:32
  TRACK 20 AUDIO
    TITLE "0:"
    INDEX 01 00:29:55
  TRACK 21 AUDIO
    TITLE "4:cjc172_2777"
    INDEX 01 00:29:67
  TRACK 22 AUDIO
    TITLE "0:"
    INDEX 01 00:32:67
  TRACK 23 AUDIO
    TITLE "5:cjc172_2778"
    INDEX 01 00:32:73
  TRACK 24 AUDIO
    TITLE "0:"
    INDEX 01 00:37:23
  TRACK 25 AUDIO
    TITLE "3:cjc172_2779"
    INDEX 01 00:37:70
  TRACK 26 AUDIO
    TITLE "0:"
    INDEX 01 00:39:32
  TRACK 27 AUDIO
    TITLE "4:cjc172_2780"
    INDEX 01 00:39:40
  TRACK 28 AUDIO
    TITLE "0:"
    INDEX 01 00:41:46
  TRACK 29 AUDIO
    TITLE "5:cjc172_2781"
    INDEX 01 00:41:52
  TRACK 30 AUDIO
    TITLE "0:"
    INDEX 01 00:44:64
  TRACK 31 AUDIO
    TITLE "3:cjc172_2782"
    INDEX 01 00:45:34
  TRACK 32 AUDIO
    TITLE "0:"
    INDEX 01 00:46:46
  TRACK 33 AUDIO
    TITLE "4:cjc172_2783"
    INDEX 01 00:46:55
  TRACK 34 AUDIO
    TITLE "0:"
    INDEX 01 00:50:40
  TRACK 35 AUDIO
    TITLE "5:cjc172_2784"
    INDEX 01 00:50:47
  TRACK 36 AUDIO
    TITLE "0:"
    INDEX 01 00:55:41
  TRACK 37 AUDIO
    TITLE "3:cjc172_2785"
    INDEX 01 00:56:11
  TRACK 38 AUDIO
    TITLE "0:"
    INDEX 01 00:57:28
  TRACK 39 AUDIO
    TITLE "4:cjc172_2786"
    INDEX 01 00:57:36
  TRACK 40 AUDIO
    TITLE "0:"
    INDEX 01 00:59:11
  TRACK 41 AUDIO
    TITLE "5:cjc172_2787"
    INDEX 01 00:59:19
  TRACK 42 AUDIO
    TITLE "0:"
    INDEX 01 01:04:65
  TRACK 43 AUDIO
    TITLE "3:cjc172_2788"
    INDEX 01 01:05:37
  TRACK 44 AUDIO
    TITLE "0:"
    INDEX 01 01:06:66
  TRACK 45 AUDIO
    TITLE "4:cjc172_2789"
    INDEX 01 01:06:74
  TRACK 46 AUDIO
    TITLE "0:"
    INDEX 01 01:08:14
  TRACK 47 AUDIO
    TITLE "5:cjc172_2790"
    INDEX 01 01:08:20
  TRACK 48 AUDIO
    TITLE "0:"
    INDEX 01 01:13:03
  TRACK 49 AUDIO
    TITLE "3:cjc172_2791"
    INDEX 01 01:13:48
  TRACK 50 AUDIO
    TITLE "0:"
    INDEX 01 01:14:46
  TRACK 51 AUDIO
    TITLE "4:cjc172_2792"
    INDEX 01 01:14:54
  TRACK 52 AUDIO
    TITLE "0:"
    INDEX 01 01:16:17
  TRACK 53 AUDIO
    TITLE "5:cjc172_2793"
    INDEX 01 01:16:23
  TRACK 54 AUDIO
    TITLE "0:"
    INDEX 01 01:20:37
  TRACK 55 AUDIO
    TITLE "3:cjc172_2794"
    INDEX 01 01:21:07
  TRACK 56 AUDIO
    TITLE "0:"
    INDEX 01 01:22:24
  TRACK 57 AUDIO
    TITLE "4:cjc172_2795"
    INDEX 01 01:22:36
  TRACK 58 AUDIO
    TITLE "0:"
    INDEX 01 01:25:01
  TRACK 59 AUDIO
    TITLE "5:cjc172_2796"
    INDEX 01 01:25:07
  TRACK 60 AUDIO
    TITLE "0:"
    INDEX 01 01:30:23
